<svg xmlns="http://www.w3.org/2000/svg" width="236" height="250.45296" viewBox="0 0 236 250.45296">
    <title>D.C. United logo (2016)</title>
    <path id="trap" style="fill: #231f20" d="M234.88644,47.76059a34.96241,34.96241,0,0,1-7.37607,20.67882,59.57158,59.57158,0,0,1,2.1109,15.79622c-.03244,16.47819-7.74168,25.21423-9.69368,28.1787A49.53862,49.53862,0,0,1,215.33523,142.02c-5.16111,10.15628-12.18887,17.1554-23.24268,22.7324,0,0-8.3649,20.86387-19.2872,35.83693-23.38,32.05216-50.35121,47.4182-55.05259,48.96054-5.11248-1.62149-31.27385-16.76815-54.75213-48.95958-10.9222-14.975-19.28815-35.835-19.28815-35.835-11.05382-5.57984-18.08157-12.58089-23.24269-22.72953a49.542,49.542,0,0,1-4.59169-29.60658c-1.95151-2.96637-9.66029-11.70337-9.69272-28.18157A59.55763,59.55763,0,0,1,8.29609,68.44229,34.96309,34.96309,0,0,1,.91925,47.76347,45.1966,45.1966,0,0,1,5.88608,25.27335,26.25815,26.25815,0,0,1,7.74841,22.347a36.78453,36.78453,0,0,0,3.18423,8.01876A26.98786,26.98786,0,0,0,16.821,37.68007a29.00775,29.00775,0,0,0,10.533,6.206L27.3187,9.50756c15.7676-3.47534,47.628-8.40888,90.47173-8.40888,42.84846,0,74.4094,4.93364,90.68922,8.40878L208.44532,43.886a29.00685,29.00685,0,0,0,10.533-6.206,26.97149,26.97149,0,0,0,5.88832-7.31427,36.785,36.785,0,0,0,3.18422-8.01877,26.24428,26.24428,0,0,1,1.86224,2.9267,45.19671,45.19671,0,0,1,4.96693,22.49013"/>
    <path id="crest" style="fill: #fff" d="M228.57215,30.70915c-1.53564,3.9059-4.92172,7.5781-8.28869,10.49679-4.02513,3.49289-10.97848,6.67006-15.15621,7.35681V11.96754c-5.31277-1.10643-36.22609-7.63781-87.27453-7.63781-51.04558,0-81.85683,6.53186-87.16293,7.63762V48.56256c-4.18918-.68675-11.13871-3.86392-15.16479-7.35681-3.36508-2.91869-6.74742-6.5909-8.28555-10.49679A40.59125,40.59125,0,0,0,4.53213,46.98781c.286,9.33255,3.40609,14.62492,7.70915,20.87626,0,0-3.10058,6.64641-2.40992,19.68493.58664,11.04428,6.97224,20.02545,9.90447,24.10971-3.337,19.5018,5.66483,32.73129,11.20738,39.09518a51.80793,51.80793,0,0,0,15.93548,11.8598c2.91373,7.66279,10.42429,24.56277,20.5882,37.72167C79.78644,216.288,97.61905,235.002,117.717,245.45487c20.10175-10.45291,38.30541-29.16686,50.6259-45.11951,10.163-13.15985,17.67429-30.05868,20.58821-37.72167a51.80693,51.80693,0,0,0,15.93548-11.85979c5.54218-6.3636,14.54384-19.59337,11.20738-39.09517,2.93233-4.08455,9.31872-13.06543,9.90447-24.10972.69067-13.03872-2.40993-19.68493-2.40993-19.68493,4.30306-6.25153,7.42319-11.54313,7.71-20.87626A40.61814,40.61814,0,0,0,228.5712,30.709"/>
    <g id="wordmark" style="fill: #231f20">
        <path id="dc-D" d="M51.24461,16.20221a16.27793,16.27793,0,0,0-3.037.186c-2.45418.2995-8.27057,1.24855-8.27057,1.24855l.01812,34.6685s3.517-.45627,4.7691-.63339c1.32772-.18791,5.42533-.682,6.35244-.87561a5.94862,5.94862,0,0,0,3.242-1.62054,6.11072,6.11072,0,0,0,1.82561-4.67563l-.0186-21.25588a11.06045,11.06045,0,0,0-.7638-4.52692,4.824,4.824,0,0,0-2.36548-2.18044,5.31233,5.31233,0,0,0-1.75121-.33479Zm-2.55242,3.44615a1.36279,1.36279,0,0,1,1.30407.33532c.286.30551.33288.895.33532,1.9374l.0186,23.97618a1.8146,1.8146,0,0,1-.44711,1.453,2.575,2.575,0,0,1-1.35995.503l-2.79441.37258-.0186-28.16726,2.96209-.40984Z"/>
        <path id="dc-dot1" d="M59.80707,45.87814a1.98591,1.98591,0,0,0-1.39716.7638,2.06,2.06,0,0,0-.48435,1.52764,2.0834,2.0834,0,0,0,.70791,1.453,1.92492,1.92492,0,0,0,1.49035.52161,1.94737,1.94737,0,0,0,1.39715-.74517,2.16663,2.16663,0,0,0-.24245-2.9989,1.89782,1.89782,0,0,0-1.47175-.52174Z"/>
        <path id="dc-C" d="M72.85531,13.48471c-1.02135.07068-4.26234.27874-6.24084,2.31006A6.84574,6.84574,0,0,0,64.8871,20.953V43.14079a5.81,5.81,0,0,0,2.12378,4.65731c.62889.494,2.02123,1.59508,5.77509,1.24817a9.91826,9.91826,0,0,0,5.887-2.1604,5.35358,5.35358,0,0,0,1.76934-4.26644V34.40389L74.72309,36.807l.0186,5.90548c0,1.79567-.65825,2.59058-2.03059,2.75712-.89946.10807-2.10508-.014-2.10508-2.25417V19.2021a2.04159,2.04159,0,0,1,1.8816-2.29136A1.77948,1.77948,0,0,1,74.66729,18.904l.0186,6.87418,5.70059-2.42184-.0186-3.39055a7.75377,7.75377,0,0,0-.80106-4.173c-1.28193-1.96391-4.33511-2.47516-6.72443-2.31015Z"/>
        <path id="dc-dot2" d="M84.32311,43.81026a1.91939,1.91939,0,0,0-1.37856.74517,2.11505,2.11505,0,0,0-.503,1.54623,2.06125,2.06125,0,0,0,.72654,1.43445,1.94581,1.94581,0,0,0,2.8689-.22355,2.14379,2.14379,0,0,0-.22287-2.99986A1.92846,1.92846,0,0,0,84.32332,43.81Z"/>
        <path id="united-U" d="M106.16461,12.05026l-5.86818.149V41.596c0,2.07027-1.18369,2.42261-2.36595,2.44045-1.45762.02193-2.29136-.60816-2.29136-2.19827V12.348l-5.79369.27944V41.53962c0,3.01932,1.22366,3.91372,1.807,4.43374,1.105.984,3.60354,1.65106,6.20355,1.54624,3.0713-.12351,4.78551-.76841,6.278-1.8816a5.42262,5.42262,0,0,0,2.03058-4.54553V12.05026Z"/>
        <polygon id="united-N" points="117.118 11.92 111.734 11.938 111.734 46.794 117.491 46.794 117.491 22.706 123.098 33.79 123.098 46.794 128.762 46.887 128.762 12.032 122.949 11.976 122.93 24.83 117.118 11.92 117.118 11.92"/>
        <polygon id="united-I" points="134.854 12.181 134.854 47.036 140.629 47.353 140.629 12.386 134.854 12.181 134.854 12.181" />
        <path id="united-T" d="M144.54061,12.59051l-1.73252,3.48364,6.25945.354V47.72484s5.87753.4139,5.7565.40985v-31.353l5.7751.39122-.03721-3.55823s-5.83737-.41669-8.19693-.55888c-3.26064-.19582-7.82428-.46573-7.82428-.46573Z"/>
        <path id="united-E" d="M163.37474,13.82V48.769s4.401.43926,6.05456.61477c1.84926.19582,6.79969.72654,6.79969.72654l-.0372-3.94939-7.07915-.81968.01908-12.59329,3.78171.39122,2.08648-4.00528-5.88687-.6334V18.03037l6.16626.652.0372-3.65131s-3.96007-.40113-5.71919-.59614c-1.4439-.16007-6.22215-.61477-6.22215-.61477Z"/>
        <path id="united-D" d="M179.61925,15.58985V50.59409s3.60468.45621,4.78769.652c1.17407.19664,5.55113.7905,6.46442.80106a4.36231,4.36231,0,0,0,3.018-.74517c1.16271-.73289,1.8257-2.13932,1.8257-4.15437L195.696,25.743a20.71292,20.71292,0,0,0-.31666-4.89949,4.67608,4.67608,0,0,0-2.31779-2.83475c-1.01105-.61617-2.81376-.9357-5.30323-1.34107-2.46085-.3863-8.16471-1.08068-8.16471-1.08068Zm5.79351,4.18891,2.8876.40985c.86291.11944,1.12188.33623,1.34125.81969a4.79131,4.79131,0,0,1,.24218,1.90019V46.8284c0,.676-.11521,1.00466-.33536,1.17367a1.94408,1.94408,0,0,1-1.453.13041l-2.68262-.37259V19.77876Z"/>
    </g>
    <g id="eagle" style="fill: #231f20">
        <path id="eagle-body" d="M9.47112,40.94117C8.063,49.14211,10.94964,56.85184,15.3582,63.2968c7.01534,10.25738,16.896,15.21534,21.25588,17.62278,6.57563,3.63024,9.01836,5.13632,11.979,7.35872,10.349,7.77173,7.73071,17.34427,7.73071,17.34427-3.39464-7.73548-11.11582-13.07306-22.43-18.70441C18.29406,79.15407,16.15941,71.94033,16.15941,71.94033a41.43667,41.43667,0,0,0,.26039,21.666c4.56718,15.57875,17.64662,21.34745,27.64552,26.975a67.91864,67.91864,0,0,1,11.15874,7.39582c9.31711,8.15688,7.6194,13.99063,7.6194,13.99063-3.35935-6.70535-13.44409-11.09293-22.2612-15.53772-12.02958-6.07584-15.89064-11.608-15.89064-11.608-1.76152,10.46149,1.461,20.1876,5.6633,26.975A44.00081,44.00081,0,0,0,54.4055,160.27732h126.963A44.00131,44.00131,0,0,0,205.419,141.79705c4.20158-6.78776,7.42569-16.51443,5.66331-26.975,0,0-3.86069,5.53005-15.89064,11.60608-8.81827,4.45262-18.90185,8.83676-22.26216,15.53677,0,0-1.71553-5.83376,7.60081-13.99063a68.237,68.237,0,0,1,11.17781-7.39582c9.998-5.62754,23.06051-11.39625,27.6274-26.975a41.39806,41.39806,0,0,0,.27947-21.666S217.4803,79.151,201.87971,86.91529c-11.31231,5.63078-19.03539,10.967-22.43,18.70346,0,0-2.61786-9.57254,7.73119-17.34427,2.96-2.22307,5.40215-3.72829,11.979-7.35853,4.35915-2.40744,14.24148-7.36606,21.25588-17.62373,4.40789-6.44487,7.295-14.15469,5.88688-22.35563,0,0-1.41443,3.08618-6.7624,6.38983-6.47654,4-13.54139,6.02985-23.47255,8.71849-9.38864,2.54154-25.43267,5.67742-34.91172,10.99086-4.39491,2.46277-7.01382,5.79951-7.09776,9.63168-.2251,10.203,8.96065,19.76219,8.96065,32.93636,0,8.27629-6.37542,13.82276-17.41866,13.82276-8.22184,0-12.28425-2.11911-14.28823-3.8563a10.81094,10.81094,0,0,1-3.40914-7.80568,7.51155,7.51155,0,0,1,7.74978-7.95467c2.44407,0,5.59835,1.3468,6.185,3.98668,1.00666-.299,4.88088-3.10812,4.88088-8.97935,0-3.93356-2.60392-8.30778-9.853-8.30778a20.59694,20.59694,0,0,0-5.60741.72654c.20069-4.72312-4.2527-7.04186-9.03525-7.04186-4.971,0-8.45333,1.57132-18.38679.54025a32.253,32.253,0,0,1-6.76239-1.41586,15.56106,15.56106,0,0,1,1.8629,3.07388,10.42358,10.42358,0,0,1,.74522,5.40254c-.31448,3.20941-2.53154,5.31248-5.7565,6.632,1.36749.68417,7.35853,2.54851,7.35853,10.95367a14.212,14.212,0,0,1-4.7505,10.11526,14.80927,14.80927,0,0,1-10.24593,3.8376c-9.23994,0-13.52517-5.45346-13.52517-13.73024,0-13.17416,9.11508-22.80774,8.96066-32.93636-.05818-3.83149-2.78992-7.23949-7.07925-9.62977-9.48955-5.29084-25.5433-8.45084-34.92984-10.99182-9.93118-2.68882-16.99612-4.71855-23.47256-8.71791-5.34807-3.304-6.76268-6.3906-6.76268-6.3906Zm92.75615,46.406c3.38578,1.69246,9.89016,1.68445,14.12131.9874,3.38091-.57446,7.26486-1.16547,9.5196.6334,2.9307,2.33514,2.10508,6.33393,2.10508,6.33393l.55884-.20492a19.20663,19.20663,0,0,1,7.26544-1.24817c4.29085.00406,6.99885,1.34335,7.54491,4.56422a7.1015,7.1015,0,0,1-1.08049,4.7132s-1.52144-2.96208-6.57612-2.96208c-6.83812,0-12.082,4.55249-11.88555,12.165a14.25473,14.25473,0,0,0,3.465,8.6067c-.09911-.05723-.09347.31667-.09347.31667-2.479-1.32113-6.34129-2.57913-8.40183-1.47174-2.605,1.40154-2.45084,5.90968-1.97469,8.43912l-.50305.20487c-.69229-1.868-1.6047-5.70575-6.96737-7.65659-2.27915-.8284-5.79588-.64211-8.97935-.05628a18.05346,18.05346,0,0,0,5.19755-11.90368c0-6.68056-3.36717-9.006-5.14166-10.32033a7.76717,7.76717,0,0,0,3.24146-5.08577,9.776,9.776,0,0,0-1.41165-6.04913Z"/>
        <path id="eagle-eye" d="M115.3795,93.83021a28.296,28.296,0,0,0,3.12968,3.63272c1.56407,1.17243,4.14282.117,6.25944-.78242,1.01887-.48264,3.03659-1.28547,3.03659-1.28547a8.72557,8.72557,0,0,0-2.34726-1.08049,16.29209,16.29209,0,0,0-5.6447-.48436c-1.92329.06906-4.43374,0-4.43374,0Z"/>
        <path id="eagle-stripe" d="M97.17871,180.27014a13.64612,13.64612,0,0,1,1.32267,5.6633,22.12259,22.12259,0,0,1-1.04329,7.47032h40.77962a22.0253,22.0253,0,0,1-1.06189-7.47032,13.62571,13.62571,0,0,1,1.37856-5.6633H97.17871Z"/>
        <path id="eagle-bottom" d="M86.2403,213.30092c7.50524,8.5014,22.81728,21.51722,31.4465,26.08125,9.49022-5.02378,24.48742-19.02584,32.22862-26.08125Z"/>
    </g>
    <path id="city-flag" style="fill: #ef3e42" d="M160.25,167.27044c9.59352-3.09249,21.0117-7.008,21.0117-7.008H54.4132s11.72531,4.12355,21.39132,7.05026c8.30558,2.51637,18.31907,6.09309,21.39419,12.96337h41.39293c3.36622-6.87065,13.39736-10.34037,21.65458-13.00152m-67.22429,36.084a91.02,91.02,0,0,1-6.72519,9.95789h63.59213c-1.364-1.95533-4.254-5.67522-6.858-9.94833a43.38574,43.38574,0,0,1-4.78818-9.95789H97.46121A54.37954,54.37954,0,0,1,93.02,203.36233m56.81906-60.32816h-6.9812l5.64861,4.10324-2.15725,6.64068,5.64776-4.104,5.64947,4.104-2.15887-6.64069,5.64863-4.10323h-6.982l-2.15725-6.63745-2.158,6.63745Zm-34.41383,0h-6.982l5.64861,4.10324-2.158,6.64068,5.64862-4.104,5.64614,4.104L121.073,147.1374l5.64537-4.10323h-6.97872l-2.15725-6.63745-2.15725,6.63745Zm-32.716-6.63744,2.158,6.63744h6.9811l-5.64948,4.10324,2.158,6.64068-5.64786-4.104-5.64861,4.104,2.158-6.64069-5.64861-4.10323h6.982l2.15725-6.63745Z"/>
    <g id="filler" style="fill: #231f20">
        <path id="filler-top" d="M117.66961,54.07508a589.94666,589.94666,0,0,0-59.31616,3.12967s11.0109,2.57894,19.28147,6.986c4.87861,2.5984,8.17166,6.70325,8.47632,11.10342.4412,6.38965-2.62577,13.26573-4.471,17.54839-2.9949,6.94943-4.57644,12.5723-4.54553,16.84064a11.46466,11.46466,0,0,0,1.76981,6.24085c1.31465,1.81836,3.30442,3.67,7.76839,3.67,7.47919,0,10.33941-6.67788,10.33941-10.65607A8.58407,8.58407,0,0,0,93.47,101.8774a19.677,19.677,0,0,0-6.29673-3.42784s8.62539-2.7697,8.62539-7.78708c0-4.11211-2.51217-8.818-5.7378-12.23942l.20492-.20492A29.33171,29.33171,0,0,0,97.084,80.4164a71.6328,71.6328,0,0,0,12.165.9874c6.618,0,9.63359-.78243,14.5305-.78243,5.10265,0,9.62309,2.4187,10.73048,7.04187a25.4598,25.4598,0,0,1,5.40253-.13041c6.067.611,10.2135,4.88127,10.32033,10.43288a14.55085,14.55085,0,0,1-10.93554,14.73556,4.33043,4.33043,0,0,0,.16768-2.19826,3.592,3.592,0,0,0-3.39054-3.07378c-2.83972,0-4.2672,2.33266-4.173,4.65731.20555,5.08558,5.924,7.26688,11.66236,7.58211.86941.04769,1.49264.07821,2.31006.05628,5.33014-.14136,8.66956-1.47718,10.5998-3.85629a10.54747,10.54747,0,0,0,1.90021-6.185c.03052-4.26815-1.55064-9.89111-4.54553-16.84065-1.84088-4.2836-4.91218-11.15969-4.47342-17.54933.30522-4.4,3.62452-8.468,8.47946-11.10342,8.12654-4.40665,19.28624-6.98578,19.28624-6.98578-17.58844-1.76075-38.18142-3.12948-59.45161-3.12948Z"/>
        <path id="filler-right" d="M182.09063,165.70245c-7.80338,3.00148-14.73079,5.16837-21.34935,7.26544-8.17148,2.59029-19.07926,5.98273-19.67254,12.59328-.74751,8.33886,10.32319,20.50332,13.115,23.28656a143.54422,143.54422,0,0,0,16.43146-21.088,145.4015,145.4015,0,0,0,11.47541-22.05708Z"/>
        <path id="filler-left" d="M53.75415,165.73965a141.12142,141.12142,0,0,0,27.99939,43.23953c3.14684-3.25091,13.02155-14.98929,13.02155-23.361,0-6.44974-11.48972-9.96551-19.67254-12.51889-6.37247-1.99348-13.54425-4.3685-21.3484-7.36348Z"/>
    </g>
</svg>
