<?xml version="1.0" encoding="UTF-8"?>
<svg width="79.375mm" height="78.023mm" version="1.1" viewBox="0 0 79.375 78.023" xmlns="http://www.w3.org/2000/svg" xmlns:cc="http://creativecommons.org/ns#" xmlns:dc="http://purl.org/dc/elements/1.1/" xmlns:rdf="http://www.w3.org/1999/02/22-rdf-syntax-ns#" xmlns:xlink="http://www.w3.org/1999/xlink">
<defs></defs>
<metadata>
<rdf:RDF>
<cc:Work rdf:about="">
<dc:format>image/svg+xml</dc:format>
<dc:type rdf:resource="http://purl.org/dc/dcmitype/StillImage"/>
<dc:title/>
</cc:Work>
</rdf:RDF>
</metadata>
<path d="m39.685 77.985c-2.208 0-4.8445-0.68898-10.546-4.0579-3.2062-1.8988-7.1393-4.519-11.072-7.378-3.9386-2.859-7.6439-5.7885-10.443-8.2569-4.9639-4.3726-6.4341-6.6728-7.1176-8.7723-0.68355-2.1049-0.84088-4.8228 0.60218-11.284 0.81375-3.6402 2.0886-8.1918 3.5914-12.814 1.5027-4.6275 3.1465-9.0598 4.6275-12.483 2.6257-6.0706 4.3563-8.1864 6.1411-9.4829 1.7903-1.2966 4.3292-2.2894 10.921-2.9132 3.7161-0.3472 8.4359-0.5425 13.297-0.5425 4.8608 0 9.586 0.1953 13.297 0.5425 6.5914 0.62388 9.1303 1.6167 10.921 2.9132 1.7903 1.2966 3.5154 3.4123 6.1465 9.4829 1.481 3.4232 3.1194 7.8554 4.6221 12.483 1.5027 4.6221 2.7776 9.1737 3.5968 12.814 1.4431 6.4558 1.2857 9.1791 0.60218 11.284-0.68355 2.0995-2.1592 4.3997-7.1231 8.7723-2.7993 2.4684-6.5046 5.3979-10.438 8.2569-3.9331 2.8536-7.8663 5.4793-11.078 7.378-5.6963 3.3689-8.3328 4.0579-10.546 4.0579" fill="#fff"/>
<path d="m32.936 66.983c3.1085 1.8445 5.5986 3.0326 6.7487 3.0326 1.1501 0 3.6456-1.1881 6.7542-3.0326zm-24.771-19.861c-1.3997-4.3238 8.3654-34.384 12.044-37.053 3.6727-2.6691 35.279-2.6691 38.957 0 3.6728 2.6691 13.438 32.729 12.038 37.053-0.49367 1.5136-3.9603 4.7794-8.4522 8.3925h-46.134c-4.4865-3.6131-7.9585-6.8789-8.4522-8.3925" fill="#e31735"/>
<path d="m62.649 65.898h-45.923s-4.0633-2.9078-6.2984-5.0019c-2.3978-2.246-5.0941-4.4323-5.0941-4.4323l68.773-0.18463s-3.5588 3.2116-5.284 4.7089c-2.5118 2.1809-6.1737 4.9097-6.1737 4.9097" fill="#e31735"/>
<path d="m47.437 51.95c-1.915 0-3.472-1.5516-3.472-3.4666 0-1.915 1.557-3.4666 3.472-3.4666 1.915 0 3.4666 1.5516 3.4666 3.4666 0 1.915-1.5516 3.4666-3.4666 3.4666m2.6203-7.4051c-0.22794-0.15196-0.47198-0.28227-0.7324-0.39604-0.11928-0.05433-15.478-7.6004-15.478-7.6004s8.6095 13.318 10.004 14.935c0.4991 0.58048 1.0904 1.0796 1.6872 1.34 2.3925 1.047 5.1863-0.04882 6.2334-2.4413 0.93309-2.1375 0.16259-4.5896-1.7143-5.8373" fill="#fff"/>
<path d="m33.31 29.534c-2.1374 0-3.8735-1.736-3.8735-3.8735 0-2.1375 1.736-3.8735 3.8735-3.8735 2.1429 0 3.8735 1.736 3.8735 3.8735 0 2.1375-1.7306 3.8735-3.8735 3.8735m5.1267-3.944c0.02362-2.8807-2.2894-5.2351-5.17-5.2568-2.783-0.02362-5.0778 2.1429-5.246 4.8879l-3.3798 27.017 13.405-24.624-0.03149-0.01181c0.26573-0.61847 0.41773-1.2966 0.42316-2.0127" fill="#fff"/>
<path d="m50.6 28.096c-1.3291 0-2.4087-1.0796-2.4087-2.4087 0-1.3346 1.0796-2.4141 2.4087-2.4141 1.3346 0 2.4141 1.0796 2.4141 2.4141 0 1.3291-1.0796 2.4087-2.4141 2.4087m2.1809-5.0995c-1.4376-1.2315-3.5751-1.1121-4.8662 0.24408l-13.595 12.564s17.436-6.803 17.751-6.9495c0.30943-0.14645 0.78121-0.49367 1.0958-0.86255 1.2749-1.4865 1.1013-3.727-0.38502-4.9965" fill="#fff"/>
<path d="m9.4837 55.509h3.9386c-0.60221-0.50454-1.1773-0.99821-1.7143-1.4702-4.2478-3.7433-5.1538-5.3274-5.4685-6.293-0.30943-0.96565-0.50993-2.7776 0.72153-8.3057 0.76491-3.4124 1.9693-7.709 3.3961-12.092 1.4214-4.3834 2.9729-8.5661 4.3617-11.778 2.2459-5.1972 3.4774-6.5426 4.2966-7.1393 0.8192-0.59674 2.4847-1.3508 8.1213-1.8825 3.4829-0.32557 7.9422-0.50997 12.548-0.50997 4.6113 0 9.0652 0.18464 12.548 0.50997 5.6366 0.53166 7.3021 1.2857 8.1212 1.8825 0.8192 0.59674 2.0507 1.9422 4.2966 7.1393 1.3888 3.2116 2.9404 7.3943 4.3617 11.778 1.4268 4.3834 2.6311 8.68 3.3961 12.092 1.2369 5.5281 1.0362 7.34 0.72153 8.3057-0.31455 0.96565-1.2206 2.5498-5.4684 6.293-0.53166 0.47198-1.1067 0.96565-1.7143 1.4702h3.944c4.237-3.7975 5.246-5.5986 5.6909-6.9658 0.46112-1.4268 0.70523-3.5805-0.65646-9.6674-0.78117-3.4883-2.0072-7.8663-3.4611-12.326-1.4431-4.4539-3.0272-8.718-4.4431-12-2.4792-5.7234-3.9385-7.3292-5.1484-8.2081-1.2152-0.87888-3.1899-1.774-9.3961-2.3599-3.5642-0.3362-8.105-0.5208-12.792-0.5208-4.6872 0-9.228 0.18464-12.792 0.5208-6.2062 0.58591-8.1809 1.481-9.3907 2.3599-1.2152 0.87884-2.6745 2.4847-5.1484 8.2081-1.4213 3.2821-3 7.5462-4.4485 12-1.4485 4.4593-2.68 8.8373-3.4557 12.326-1.3617 6.0869-1.123 8.2406-0.66185 9.6674 0.44486 1.3671 1.4593 3.1682 5.6963 6.9658" fill="#e31735"/>
<path d="m50.291 66.983c-1.0307 0.65642-2.0127 1.264-2.9295 1.8065-4.8771 2.8861-6.6619 3.255-7.6764 3.255-1.0145 0-2.7993-0.36888-7.6764-3.255-0.9168-0.54249-1.8987-1.1501-2.9241-1.8065h-4.6764c2.2514 1.5353 4.4051 2.9132 6.2876 4.0308 5.3653 3.1736 7.492 3.6076 8.9893 3.6076s3.6239-0.43399 8.9893-3.6076c1.8879-1.1176 4.0362-2.4955 6.293-4.0308z" fill="#e31735"/>
<path d="m58.537 66.983c-3.2062 2.2677-6.331 4.3129-8.9676 5.8699-5.4413 3.2225-7.888 3.8843-9.8844 3.8843s-4.4431-0.66185-9.8844-3.8843c-2.6311-1.557-5.756-3.6022-8.9676-5.8699h-2.2243c3.7541 2.7017 7.4703 5.17 10.535 6.982 5.6963 3.3689 8.3328 4.0579 10.541 4.0579 2.2134 0 4.85-0.68898 10.546-4.0579 3.0597-1.812 6.7813-4.2803 10.53-6.982z" fill="#e31735"/>
<path d="m5.5831 56.464 1.3617-0.0039h-1.3617v0.0039" fill="#e31735"/>
<path d="m78.251 38.284c-0.81376-3.6402-2.0886-8.1864-3.5914-12.814-1.5027-4.6221-3.1411-9.0544-4.6221-12.472-2.6257-6.076-4.3563-8.1864-6.1411-9.4829-1.7903-1.2966-4.3292-2.2894-10.915-2.9132-3.7161-0.3472-8.4359-0.5425-13.297-0.5425-4.8608 0-9.5806 0.1953-13.291 0.5425-6.5914 0.62388-9.1303 1.6167-10.915 2.9132-1.7903 1.2966-3.5154 3.4069-6.1466 9.4829-1.481 3.4178-3.1194 7.85-4.6221 12.472-1.5027 4.6221-2.7776 9.1737-3.5914 12.814-1.4431 6.4558-1.2857 9.1791-0.60218 11.279 0.51538 1.595 1.4919 3.3038 4.1013 5.9458h1.8391c-3.1357-2.9946-4.199-4.7469-4.7198-6.3419-0.61303-1.8988-0.74323-4.4322 0.64015-10.6 0.8029-3.6022 2.0669-8.1104 3.5588-12.695 1.4865-4.5841 3.1194-8.9784 4.5787-12.364 2.5118-5.8048 4.1067-7.7741 5.718-8.9513 1.6167-1.1718 3.982-2.0778 10.28-2.6691 3.6727-0.3472 8.3545-0.53708 13.172-0.53708 4.8228 0 9.4992 0.18988 13.172 0.53708 6.2984 0.59133 8.6638 1.4973 10.28 2.6691 1.6167 1.1772 3.2062 3.1465 5.718 8.9513 1.4648 3.3852 3.0923 7.7741 4.5787 12.364 1.4919 4.5841 2.7559 9.0923 3.5642 12.695 1.378 6.1682 1.2478 8.7017 0.63472 10.6-0.5208 1.595-1.5787 3.3472-4.7143 6.3419h1.8337c2.6149-2.642 3.5859-4.3509 4.1067-5.9458 0.68355-2.0995 0.84088-4.8228-0.6076-11.279" fill="#e31735"/>
<path d="m51.001 59.523h2.4195c0.06496 0 0.20078 0.16259 0.20078 0.60221 0 0.43399-0.14094 0.59674-0.20078 0.59674h-2.4195zm2.5172 2.208c0.66185-0.05984 1.1663-0.74322 1.1663-1.6058 0-0.90601-0.55875-1.6167-1.264-1.6167h-4.2803l-0.2551 1.0145h1.047v3.114h-0.74322l-0.24959 1.0145h2.5769l0.24959-1.0145h-0.76492v-0.90058h1.2911l1.1447 1.9259h1.5081l0.24959-1.0145h-1.1501z" fill="#fff"/>
<path d="m23.681 59.523h0.57504l0.2551-1.0145h-3.0163l-0.2551 1.0145h0.73779l-1.6058 1.2858v-2.3002h-1.8608l-0.24959 1.0145h1.047v3.1248h-0.74322l-0.2551 1.0145h2.2514l0.24959-1.0145h-0.43942v-0.47198l1.0688-0.85172 0.85715 1.3237h-0.31455l-0.24959 1.0145h2.501l0.24959-1.0145h-0.87888l-1.3183-2.0018z" fill="#fff"/>
<path d="m40.699 59.523h0.58048l0.24959-1.0145h-3.0163l-0.2551 1.0145h0.73783l-1.6004 1.2858v-2.3002h-1.8608l-0.2551 1.0145h1.047v3.1248h-0.74322l-0.2551 1.0145h2.2514l0.24959-1.0145h-0.43399v-0.47198l1.0633-0.85172 0.85715 1.3237h-0.30943l-0.2551 1.0145h2.5009l0.2551-1.0145h-0.87884l-1.3237-2.0018z" fill="#fff"/>
<path d="m28.281 59.529 0.2551-1.0145h-2.8536l-0.2551 1.0145h0.97108v3.114h-0.77035l-0.24959 1.0145h2.8536l0.2551-1.0145h-1.0253v-3.114z" fill="#fff"/>
<path d="m42.441 59.523h0.86802v3.114h-0.64016l-0.22794 1.0145h5.1809l0.2551-1.7252h-0.81377l-0.2551 0.7107h-2.4304v-1.0688h1.6167l0.2551-1.0145h-1.8716v-1.0308h2.4304v0.79747h0.81377l0.2551-1.8119h-5.208z" fill="#fff"/>
<path d="m61.103 62.046c-0.06496-0.8246-0.59674-1.4485-1.2586-1.4485l-2.6637-0.0039c-0.07047 0-0.20078-0.20629-0.20078-0.50997 0-0.3362 0.14645-0.47737 0.20629-0.55335h3.4774l0.2551-1.0145h-3.7378c-0.71067 0-1.264 0.71067-1.264 1.6167 0 0.87341 0.54249 1.5298 1.264 1.5298h2.6583c0.05433 0.02362 0.17912 0.18464 0.20078 0.46655-0.02362 0.28738-0.14645 0.4991-0.19526 0.5154h-3.4829l-0.2551 1.0145h3.7378c0.66185 0 1.1935-0.62386 1.2586-1.4485h0.01181c0-0.02756-0.0039-0.05433-0.0039-0.08149 0-0.02756 0.0039-0.05433 0.0039-0.08149z" fill="#fff"/>
<path d="m30.582 62.117v-2.067c0-0.3362 0.18975-0.52623 0.2551-0.52623h2.6203v0.79747h0.81377l0.24959-1.8119h-3.7378c-0.7107 0-1.2695 0.71067-1.2695 1.6167v1.915c0 0.90058 0.55875 1.6112 1.2695 1.6112h3.4883l0.24959-1.0145h-3.6836c-0.05984 0-0.2551-0.18975-0.2551-0.5208" fill="#fff"/>
<path d="m23.28 14.192s1.557-0.13031 1.6058-0.13031c0.04331-0.0039 0.14094 0.09212 0.16259 0.3799 0.02362 0.28187-0.05984 0.396-0.10314 0.40143-0.0433 0-1.595 0.13031-1.595 0.13031-0.02362-0.26022-0.0433-0.5208-0.07047-0.78117m1.7849 1.302c0.42856-0.07598 0.73236-0.54253 0.68898-1.1067-0.04331-0.59134-0.45029-1.0253-0.92227-0.98738-0.94939 0.07047-1.8934 0.15196-2.8427 0.24408-0.03937 0.22243-0.07047 0.45029-0.10314 0.67272 0.22794-0.01575 0.46115-0.03937 0.68901-0.05984 0.05984 0.67272 0.1248 1.3508 0.18464 2.0235-0.16259 0.01575-0.32006 0.03149-0.48284 0.04882-0.03937 0.22243-0.07047 0.45029-0.10866 0.67272 0.55879-0.04882 1.1121-0.09763 1.6709-0.14645 0.03149-0.22794 0.07047-0.45025 0.10866-0.67811-0.16259 0.01575-0.32557 0.02756-0.48824 0.04331-0.01575-0.19526-0.03149-0.39053-0.05433-0.58587 0.28738-0.02362 0.56961-0.04882 0.85172-0.07047 0.28738 0.39604 0.56961 0.79747 0.85172 1.1935 0.32557-0.02756 0.65642-0.04882 0.98734-0.07598 0.03937-0.22243 0.07598-0.45029 0.11377-0.67272-0.24959 0.01575-0.50454 0.03937-0.75409 0.05433-0.13031-0.18975-0.26022-0.3799-0.39053-0.56965" fill="#fff"/>
<path d="m28.526 13.812c0.03937-0.22794 0.08149-0.45025 0.13031-0.67811-0.63472 0.03937-1.2695 0.08149-1.9042 0.1248-0.03937 0.22243-0.08149 0.45029-0.11928 0.67272 0.2114-0.01575 0.42856-0.03149 0.64016-0.04331 0.04331 0.67815 0.09212 1.3563 0.13582 2.029-0.1681 0.01181-0.3362 0.02756-0.50454 0.03937-0.03937 0.22243-0.08149 0.44486-0.11928 0.67268 0.6239-0.0433 1.2423-0.08149 1.8662-0.11928 0.04331-0.22243 0.08661-0.45029 0.1248-0.67272-0.22243 0.01181-0.44486 0.02756-0.66728 0.03937-0.04331-0.67811-0.08661-1.3563-0.1248-2.0289 0.17912-0.01181 0.35825-0.02362 0.54249-0.03149" fill="#fff"/>
<path d="m51.327 13.839c0.15747 0.01181 0.31455 0.01575 0.47198 0.03149-0.03149 0.5208-0.06496 1.047-0.09763 1.5679-0.57504-0.78665-1.161-1.5679-1.7523-2.3436-0.4069-0.02362-0.80834-0.0433-1.2152-0.06496-0.07047 0.21692-0.13582 0.43942-0.20078 0.65642 0.19526 0.01181 0.39604 0.01575 0.59134 0.02756-0.03149 0.67815-0.06496 1.3563-0.09763 2.0344-0.14094-0.0039-0.28227-0.01575-0.42316-0.02362-0.06496 0.22243-0.13031 0.43942-0.19526 0.65642 0.56422 0.02756 1.1338 0.05433 1.698 0.087 0.07047-0.21692 0.13542-0.43399 0.20629-0.65098-0.19526-0.01181-0.39053-0.02362-0.58591-0.03149 0.02756-0.54792 0.05433-1.0904 0.08661-1.6329 0.61303 0.79747 1.2152 1.6004 1.8174 2.4087 0.22794 0.01575 0.46112 0.03149 0.69441 0.04882 0.05984-0.90054 0.1248-1.7957 0.18463-2.6962 0.14094 0.01181 0.28227 0.02362 0.42316 0.02756 0.07047-0.21692 0.14645-0.43403 0.21692-0.65102-0.53709-0.03937-1.0741-0.07047-1.6167-0.10314-0.07047 0.21692-0.13582 0.43399-0.20629 0.65098" fill="#fff"/>
<path d="m37.732 13.492c0.05433-0.22243 0.10866-0.44486 0.16298-0.66728-0.52084 0.0039-1.0471 0.01181-1.5679 0.02362-0.04882 0.22243-0.10314 0.44486-0.15196 0.66728 0.14094-0.0039 0.28227-0.0039 0.42312-0.01181 0.0039 0.22794 0.0039 0.45029 0.01181 0.67272-0.66185 0.01181-1.3291 0.02756-1.991 0.04882-0.0039-0.22794-0.01181-0.45029-0.01575-0.67811 0.16259 0 0.32557-0.0039 0.49367-0.01181 0.04882-0.22243 0.09763-0.44486 0.15196-0.66728-0.60217 0.01181-1.1989 0.03149-1.8011 0.04882-0.04882 0.22243-0.09763 0.44486-0.14645 0.67272 0.19526-0.0039 0.39604-0.01575 0.59134-0.02362 0.02362 0.67815 0.0433 1.3563 0.06496 2.0344-0.14094 0.0039-0.28227 0.01181-0.42312 0.01575-0.0433 0.22243-0.09212 0.44486-0.14094 0.66728 0.56961-0.01575 1.1447-0.03937 1.7197-0.04882 0.04882-0.22243 0.09763-0.44486 0.14645-0.66728-0.20078 0.0039-0.40143 0.0039-0.60217 0.01181-0.0039-0.23345-0.01181-0.46111-0.01575-0.69441 0.65642-0.01575 1.3183-0.03149 1.9801-0.0433 0.0039 0.23345 0.0039 0.46655 0.01181 0.6998-0.11928 0-0.23345 0-0.35274 0.0039-0.05433 0.22243-0.10314 0.44486-0.15196 0.66728 0.54253-0.01181 1.0904-0.02362 1.6329-0.02756 0.05433-0.22243 0.10866-0.43942 0.16259-0.66185-0.20078 0-0.39053 0-0.5913 0.0039-0.0039-0.67811-0.01575-1.3563-0.02362-2.0344 0.14094-0.0039 0.28227-0.0039 0.42316-0.0039" fill="#fff"/>
<path d="m47.144 15.304c-0.0039 0.22243-0.13031 0.35825-0.17912 0.35273-0.05433 0 0.03149 0.0039 0.03149 0.0039 0-0.0039-1.8716-0.07047-1.9259-0.07047-0.04882 0-0.16259-0.14645-0.15747-0.36336 0.01181-0.43942 0.02756-0.87884 0.03937-1.3129 0.0039-0.21692 0.13582-0.35785 0.17912-0.35785 0.0433 0 1.8771 0.06496 1.915 0.06496 0.03937 0.0039 0.15747 0.14645 0.15196 0.36888-0.01575 0.43399-0.03149 0.87341-0.05433 1.3128m0.70527 0c0.01575-0.41773 0.03149-0.83546 0.05433-1.2532 0.02756-0.5913-0.32557-1.0741-0.79751-1.0904-0.66728-0.02756-1.3291-0.04882-1.991-0.06496-0.47737-0.01575-0.85715 0.43942-0.86798 1.0308-0.01181 0.41773-0.02362 0.83546-0.03149 1.2532-0.01575 0.5913 0.34171 1.0633 0.8029 1.0741 0.65098 0.02362 1.302 0.0433 1.953 0.07047 0.46655 0.01575 0.85172-0.42856 0.87884-1.0199" fill="#fff"/>
<path d="m56.633 15.922c-0.02362 0.22243-0.14645 0.34722-0.20078 0.34722-0.04882-0.0039 0.03149 0 0.03149 0-0.55335-0.04882-1.1121-0.09763-1.6709-0.14094 0.05433-0.67815 0.10866-1.3563 0.16259-2.029 0-0.0039 1.5949 0.13031 1.6601 0.14094 0.06496 0.0039 0.15196 0.15196 0.13031 0.36888-0.03937 0.43942-0.07598 0.87884-0.11377 1.3128m0.07598-2.3436c-0.94935-0.08149-1.8987-0.16259-2.8481-0.23345-0.07598 0.21692-0.14645 0.43403-0.21692 0.65102 0.20078 0.01575 0.4069 0.02756 0.6076 0.0433-0.05433 0.67815-0.10314 1.3563-0.15747 2.029-0.14645-0.01181-0.2929-0.02362-0.43399-0.03149-0.07598 0.21692-0.14645 0.43399-0.21692 0.65098 0.98734 0.07598 1.9747 0.15747 2.962 0.24408 0.46659 0.0433 0.87345-0.38502 0.9277-0.97648 0.03937-0.4123 0.08149-0.83003 0.11928-1.2423 0.05433-0.59134-0.27124-1.0904-0.74326-1.1338" fill="#fff"/>
<path d="m30.218 15.412c-0.02362-0.45025-0.04331-0.90054-0.06496-1.3508-0.01181-0.21692 0.10866-0.34722 0.14645-0.34722 0.03149-0.0039 1.1773-0.05984 1.7414-0.08149 0.0039 0.17361 0.01181 0.34722 0.02362 0.5208 0.17912-0.0039 0.35825-0.01575 0.53705-0.02362 0.04331-0.39604 0.08149-0.79208 0.1248-1.1881-0.23857 0.0039-0.47198 0.01575-0.71071 0.02756-0.59674 0.02362-1.1881 0.04882-1.7794 0.08149-0.47741 0.02362-0.8192 0.5045-0.78665 1.0958 0.02362 0.41773 0.0433 0.83546 0.06496 1.2532 0.03149 0.5913 0.42312 1.0307 0.88971 1.009 0.75948-0.03937 1.519-0.07047 2.2785-0.09763 0.04882-0.22794 0.09212-0.44486 0.14094-0.67272 0-0.0039-2.3762 0.09763-2.4195 0.10866-0.04331 0-0.17361-0.11928-0.18464-0.3362" fill="#fff"/>
<path d="m42.929 13.508c0.14094 0 0.28187 0.0039 0.42856 0.0039 0.05984-0.21692 0.11928-0.43942 0.17912-0.65642-0.48284-0.01181-0.96569-0.02362-1.4485-0.02756-0.37439 0.59674-0.73779 1.1881-1.1013 1.7848-0.35825-0.59674-0.72153-1.1989-1.085-1.8011-0.42316 0-0.84629 0.0039-1.2695 0.0039-0.05433 0.22243-0.10866 0.44486-0.16259 0.66728 0.19526-0.0039 0.396-0.0039 0.5913-0.0039 0 0.67815 0.0039 1.3563 0.01181 2.0344-0.14094 0-0.28227 0.0039-0.42316 0.0039-0.05433 0.22243-0.10866 0.43942-0.16259 0.66185 0.54249-0.0039 1.0796-0.0039 1.6221-0.0039 0.05433-0.21692 0.10866-0.43942 0.16259-0.66185h-0.4991v-1.5841c0.34171 0.57504 0.68358 1.1501 1.0199 1.7251 0.13031 0.0039 0.2551 0.0039 0.3799 0.0039 0.34171-0.58048 0.69441-1.1555 1.047-1.7306-0.01181 0.53162-0.01575 1.0687-0.02362 1.6004-0.14094 0-0.28187 0-0.42312-0.0039-0.05984 0.22243-0.11377 0.43942-0.17361 0.66185 0.56961 0.0039 1.1338 0.01575 1.7034 0.02756 0.05984-0.22243 0.11928-0.43942 0.17912-0.66185-0.19526-0.0039-0.39053-0.0039-0.58591-0.01181 0.01181-0.67815 0.02362-1.3563 0.03149-2.0344" fill="#fff"/>
<path d="m54.056 75.663h0.01181l0.46655-1.3129h0.75413v2.0887h-0.50454v-1.4214l-0.02362-0.01181-0.50993 1.4322h-0.38502l-0.50997-1.4268h-0.02362v1.4268h-0.50454v-2.0886h0.75409zm-1.6438-0.88428h-0.61304v1.6601h-0.50454v-1.6601h-0.61304v-0.4286h1.7306z" fill="#eb1c23"/>
</svg>
